# Blender 4.2.2 LTS
# www.blender.org
mtllib player.mtl
o Cube
v 0.998062 1.971289 -1.026281
v 0.998062 -0.024835 -1.026281
v 0.998062 1.971289 0.969842
v 0.998062 -0.024835 0.969842
v -0.998062 1.971289 -1.026281
v -0.998062 -0.024835 -1.026281
v -0.998062 1.971289 0.969842
v -0.998062 -0.024835 0.969842
v -0.990773 1.971288 0.969842
v -0.990773 6.507528 0.969842
v -0.990773 1.971288 -1.019554
v -0.990773 6.507528 -1.019554
v 0.980721 1.971288 0.969842
v 0.980721 6.507528 0.969842
v 0.980721 1.971288 -1.019554
v 0.980721 6.507528 -1.019554
vn -0.0000 1.0000 -0.0000
vn -0.0000 -0.0000 1.0000
vn -1.0000 -0.0000 -0.0000
vn -0.0000 -1.0000 -0.0000
vn 1.0000 -0.0000 -0.0000
vn -0.0000 -0.0000 -1.0000
vt 0.625000 0.500000
vt 0.875000 0.500000
vt 0.875000 0.750000
vt 0.625000 0.750000
vt 0.375000 0.750000
vt 0.625000 1.000000
vt 0.375000 1.000000
vt 0.375000 0.000000
vt 0.625000 0.000000
vt 0.625000 0.250000
vt 0.375000 0.250000
vt 0.125000 0.500000
vt 0.375000 0.500000
vt 0.125000 0.750000
s 0
usemtl Material
f 1/1/1 5/2/1 7/3/1 3/4/1
f 4/5/2 3/4/2 7/6/2 8/7/2
f 8/8/3 7/9/3 5/10/3 6/11/3
f 6/12/4 2/13/4 4/5/4 8/14/4
f 2/13/5 1/1/5 3/4/5 4/5/5
f 6/11/6 5/10/6 1/1/6 2/13/6
f 9/8/3 10/9/3 12/10/3 11/11/3
f 11/11/6 12/10/6 16/1/6 15/13/6
f 15/13/5 16/1/5 14/4/5 13/5/5
f 13/5/2 14/4/2 10/6/2 9/7/2
f 11/12/4 15/13/4 13/5/4 9/14/4
f 16/1/1 12/2/1 10/3/1 14/4/1
